# xmcd
#
# Track frame offsets:
#	150
#	26902
#	49221
#	76914
#	93666
#	103818
#
# Disc length: 2793 seconds
#
# Revision: 1
# Processed by: cddbd v1.4PL0 Copyright (c) Steve Scherf et al.
# Submitted via: EasyCDDAExtractor 5.0.6
#
DISCID=4a0ae706
DTITLE=Pink Floyd - Meddle
DYEAR=1971
DGENRE=Blues
TTITLE0=One of these Days
TTITLE1=A pillow of winds
TTITLE2=Fearless
TTITLE3=San Tropez
TTITLE4=Seamus
TTITLE5=Echoes
EXTD=
EXTT0=
EXTT1=
EXTT2=
EXTT3=
EXTT4=
EXTT5=
PLAYORDER=
